<svg xmlns="http://www.w3.org/2000/svg" xmlns:xlink="http://www.w3.org/1999/xlink" width="500" zoomAndPan="magnify" viewBox="0 0 375 374.999991" height="500" preserveAspectRatio="xMidYMid meet" version="1.0"><defs><g/><clipPath id="0406da9c8c"><path d="M 27 232 L 350.949219 232 L 350.949219 314.808594 L 27 314.808594 Z M 27 232 " clip-rule="nonzero"/></clipPath><clipPath id="eb2b6ecefd"><path d="M 23.839844 60.183594 L 351.132812 60.183594 L 351.132812 142 L 23.839844 142 Z M 23.839844 60.183594 " clip-rule="nonzero"/></clipPath></defs><path fill="#ffffff" d="M 115.898438 232.304688 L 106.765625 245.886719 C 121.296875 266.046875 143.160156 280.578125 168.449219 285.570312 C 178.667969 271.917969 189.203125 254.382812 200.0625 232.972656 L 115.898438 232.304688 " fill-opacity="1" fill-rule="evenodd"/><path fill="#ffffff" d="M 103.683594 241.355469 L 110.578125 232.261719 L 98.460938 232.167969 C 100.042969 235.332031 101.789062 238.398438 103.683594 241.355469 " fill-opacity="1" fill-rule="evenodd"/><path fill="#ffffff" d="M 206.445312 233.023438 C 194.835938 256.425781 184.320312 274.292969 174.898438 286.625 C 179.15625 287.179688 183.503906 287.464844 187.917969 287.464844 C 212.097656 287.464844 234.269531 278.878906 251.558594 264.59375 C 254.171875 257.277344 257.316406 246.898438 260.984375 233.457031 L 206.445312 233.023438 " fill-opacity="1" fill-rule="evenodd"/><path fill="#ffffff" d="M 265.238281 233.488281 C 262.785156 244.171875 260.804688 252.167969 259.304688 257.480469 C 266.199219 250.445312 272.0625 242.394531 276.652344 233.578125 L 265.238281 233.488281 " fill-opacity="1" fill-rule="evenodd"/><g clip-path="url(#0406da9c8c)"><path fill="#ffffff" d="M 290.777344 233.691406 C 273.132812 272.914062 233.714844 300.226562 187.917969 300.226562 C 141.488281 300.226562 101.613281 272.15625 84.339844 232.058594 L 69.332031 233.917969 L 27.179688 239.144531 L 72.683594 241.699219 C 93.046875 284.90625 136.988281 314.808594 187.917969 314.808594 C 238.101562 314.808594 281.5 285.777344 302.238281 243.589844 L 350.464844 238.539062 L 306.097656 234.933594 L 290.777344 233.691406 " fill-opacity="1" fill-rule="evenodd"/></g><g clip-path="url(#eb2b6ecefd)"><path fill="#ffffff" d="M 84.96875 141.503906 C 102.566406 102.171875 142.042969 74.769531 187.917969 74.769531 C 233.957031 74.769531 273.550781 102.367188 291.054688 141.925781 C 296.40625 141.210938 301.40625 140.542969 306.046875 139.925781 C 334.027344 136.21875 349.058594 134.34375 351.132812 134.304688 L 301.992188 130.90625 C 281.160156 88.992188 237.902344 60.183594 187.917969 60.183594 C 137.738281 60.183594 94.339844 89.214844 73.601562 131.394531 L 23.839844 135.839844 L 69.722656 140.089844 L 84.96875 141.503906 " fill-opacity="1" fill-rule="evenodd"/></g><path fill="#ffffff" d="M 143.441406 97.945312 C 125.613281 106.816406 110.804688 120.855469 100.984375 138.105469 C 149.859375 107 183.867188 134.957031 214.539062 122.160156 C 191.347656 104.246094 167.648438 96.175781 143.441406 97.945312 " fill-opacity="1" fill-rule="evenodd"/><path fill="#ffffff" d="M 106.8125 141.546875 L 224.828125 141.789062 C 227.476562 140.597656 230.164062 139.496094 232.886719 138.488281 C 228.769531 134.335938 224.636719 130.5 220.488281 126.976562 C 189.9375 138.183594 142.164062 114.757812 106.8125 141.546875 " fill-opacity="1" fill-rule="evenodd"/><path fill="#ffffff" d="M 156.042969 92.71875 C 177.910156 94.238281 199.132812 103.226562 219.714844 119.671875 C 226.625 113.359375 226.820312 104.429688 220.304688 92.894531 C 210.144531 89.417969 199.253906 87.53125 187.917969 87.53125 C 176.773438 87.53125 166.054688 89.355469 156.042969 92.71875 " fill-opacity="1" fill-rule="evenodd"/><path fill="#ffffff" d="M 228.589844 96.152344 C 231.898438 107.394531 230.464844 116.496094 224.285156 123.457031 C 228.960938 127.464844 233.601562 131.859375 238.210938 136.644531 C 248.351562 133.382812 258.96875 131.335938 270.066406 130.519531 C 259.695312 115.59375 245.363281 103.628906 228.589844 96.152344 " fill-opacity="1" fill-rule="evenodd"/><path fill="#ffffff" d="M 276.902344 141.898438 C 275.648438 139.453125 274.292969 137.066406 272.851562 134.746094 C 260.003906 136.203125 249.351562 138.5625 240.886719 141.824219 L 276.902344 141.898438 " fill-opacity="1" fill-rule="evenodd"/><g fill="#ffffff" fill-opacity="0.4"><g transform="translate(11.536952, 204.996315)"><g><path d="M 30 -33.59375 L 36.953125 -33.59375 L 36.953125 0 L 30 0 L 30 -14.640625 L 10.3125 -14.640625 L 10.3125 0 L 3.359375 0 L 3.359375 -33.59375 L 10.3125 -33.59375 L 10.3125 -18.234375 L 30 -18.234375 Z M 30 -33.59375 "/></g></g></g><g fill="#ffffff" fill-opacity="0.4"><g transform="translate(48.49686, 204.996315)"><g><path d="M 16.796875 -2.15625 C 18.140625 -2.15625 19.378906 -2.5 20.515625 -3.1875 C 21.648438 -3.875 22.550781 -4.976562 23.21875 -6.5 C 23.894531 -8.019531 24.234375 -10.015625 24.234375 -12.484375 C 24.234375 -14.972656 23.894531 -16.96875 23.21875 -18.46875 C 22.550781 -19.976562 21.648438 -21.078125 20.515625 -21.765625 C 19.378906 -22.453125 18.140625 -22.796875 16.796875 -22.796875 C 15.453125 -22.796875 14.210938 -22.453125 13.078125 -21.765625 C 11.941406 -21.078125 11.035156 -19.976562 10.359375 -18.46875 C 9.691406 -16.96875 9.359375 -14.972656 9.359375 -12.484375 C 9.359375 -10.015625 9.691406 -8.019531 10.359375 -6.5 C 11.035156 -4.976562 11.941406 -3.875 13.078125 -3.1875 C 14.210938 -2.5 15.453125 -2.15625 16.796875 -2.15625 Z M 16.796875 -25.921875 C 19.679688 -25.921875 22.226562 -25.398438 24.4375 -24.359375 C 26.644531 -23.316406 28.363281 -21.796875 29.59375 -19.796875 C 30.820312 -17.796875 31.4375 -15.359375 31.4375 -12.484375 C 31.4375 -9.597656 30.820312 -7.15625 29.59375 -5.15625 C 28.363281 -3.15625 26.644531 -1.632812 24.4375 -0.59375 C 22.226562 0.4375 19.679688 0.953125 16.796875 0.953125 C 13.921875 0.953125 11.382812 0.4375 9.1875 -0.59375 C 7 -1.632812 5.28125 -3.15625 4.03125 -5.15625 C 2.78125 -7.15625 2.15625 -9.597656 2.15625 -12.484375 C 2.15625 -15.359375 2.78125 -17.796875 4.03125 -19.796875 C 5.28125 -21.796875 7 -23.316406 9.1875 -24.359375 C 11.382812 -25.398438 13.921875 -25.921875 16.796875 -25.921875 Z M 16.796875 -25.921875 "/></g></g></g><g fill="#ffffff" fill-opacity="0.4"><g transform="translate(78.736786, 204.996315)"><g><path d="M 16.796875 -2.15625 C 18.140625 -2.15625 19.378906 -2.5 20.515625 -3.1875 C 21.648438 -3.875 22.550781 -4.976562 23.21875 -6.5 C 23.894531 -8.019531 24.234375 -10.015625 24.234375 -12.484375 C 24.234375 -14.972656 23.894531 -16.96875 23.21875 -18.46875 C 22.550781 -19.976562 21.648438 -21.078125 20.515625 -21.765625 C 19.378906 -22.453125 18.140625 -22.796875 16.796875 -22.796875 C 15.453125 -22.796875 14.210938 -22.453125 13.078125 -21.765625 C 11.941406 -21.078125 11.035156 -19.976562 10.359375 -18.46875 C 9.691406 -16.96875 9.359375 -14.972656 9.359375 -12.484375 C 9.359375 -10.015625 9.691406 -8.019531 10.359375 -6.5 C 11.035156 -4.976562 11.941406 -3.875 13.078125 -3.1875 C 14.210938 -2.5 15.453125 -2.15625 16.796875 -2.15625 Z M 16.796875 -25.921875 C 19.679688 -25.921875 22.226562 -25.398438 24.4375 -24.359375 C 26.644531 -23.316406 28.363281 -21.796875 29.59375 -19.796875 C 30.820312 -17.796875 31.4375 -15.359375 31.4375 -12.484375 C 31.4375 -9.597656 30.820312 -7.15625 29.59375 -5.15625 C 28.363281 -3.15625 26.644531 -1.632812 24.4375 -0.59375 C 22.226562 0.4375 19.679688 0.953125 16.796875 0.953125 C 13.921875 0.953125 11.382812 0.4375 9.1875 -0.59375 C 7 -1.632812 5.28125 -3.15625 4.03125 -5.15625 C 2.78125 -7.15625 2.15625 -9.597656 2.15625 -12.484375 C 2.15625 -15.359375 2.78125 -17.796875 4.03125 -19.796875 C 5.28125 -21.796875 7 -23.316406 9.1875 -24.359375 C 11.382812 -25.398438 13.921875 -25.921875 16.796875 -25.921875 Z M 16.796875 -25.921875 "/></g></g></g><g fill="#ffffff" fill-opacity="0.4"><g transform="translate(108.976715, 204.996315)"><g><path d="M 16.078125 -21.59375 L 10.078125 -21.59375 L 10.078125 -3.359375 L 16.078125 -3.359375 C 18.253906 -3.359375 20.035156 -4.0625 21.421875 -5.46875 C 22.816406 -6.875 23.515625 -9.210938 23.515625 -12.484375 C 23.515625 -15.742188 22.816406 -18.078125 21.421875 -19.484375 C 20.035156 -20.890625 18.253906 -21.59375 16.078125 -21.59375 Z M 3.359375 -24.953125 L 16.078125 -24.953125 C 19.054688 -24.953125 21.640625 -24.445312 23.828125 -23.4375 C 26.023438 -22.4375 27.722656 -21 28.921875 -19.125 C 30.117188 -17.25 30.71875 -15.035156 30.71875 -12.484375 C 30.71875 -9.921875 30.117188 -7.703125 28.921875 -5.828125 C 27.722656 -3.960938 26.023438 -2.523438 23.828125 -1.515625 C 21.640625 -0.503906 19.054688 0 16.078125 0 L 10.078125 0 L 10.078125 8.640625 L 3.359375 8.640625 Z M 3.359375 -24.953125 "/></g></g></g><g fill="#ffffff" fill-opacity="0.4"><g transform="translate(138.496634, 204.996315)"><g><path d="M 9.125 -19.6875 C 9.125 -18.945312 9.453125 -18.269531 10.109375 -17.65625 C 10.765625 -17.050781 11.875 -16.523438 13.4375 -16.078125 L 20.875 -13.921875 C 23.1875 -13.242188 24.960938 -12.328125 26.203125 -11.171875 C 27.453125 -10.023438 28.078125 -8.539062 28.078125 -6.71875 C 28.078125 -5.1875 27.632812 -3.84375 26.75 -2.6875 C 25.875 -1.53125 24.4375 -0.632812 22.4375 0 C 20.4375 0.632812 17.757812 0.953125 14.40625 0.953125 C 12.644531 0.953125 10.9375 0.785156 9.28125 0.453125 C 7.632812 0.117188 6.140625 -0.316406 4.796875 -0.859375 C 3.453125 -1.410156 2.332031 -2.003906 1.4375 -2.640625 L 3.359375 -5.515625 C 4.703125 -4.679688 6.273438 -3.953125 8.078125 -3.328125 C 9.890625 -2.710938 12 -2.40625 14.40625 -2.40625 C 16.800781 -2.40625 18.476562 -2.722656 19.4375 -3.359375 C 20.394531 -3.992188 20.875 -4.796875 20.875 -5.765625 C 20.875 -6.492188 20.535156 -7.15625 19.859375 -7.75 C 19.191406 -8.34375 18.007812 -8.878906 16.3125 -9.359375 L 8.875 -11.515625 C 6.832031 -12.128906 5.160156 -13.003906 3.859375 -14.140625 C 2.566406 -15.273438 1.921875 -16.800781 1.921875 -18.71875 C 1.921875 -20.09375 2.34375 -21.316406 3.1875 -22.390625 C 4.039062 -23.460938 5.363281 -24.316406 7.15625 -24.953125 C 8.945312 -25.597656 11.28125 -25.921875 14.15625 -25.921875 C 16.8125 -25.921875 19.21875 -25.5625 21.375 -24.84375 C 23.539062 -24.125 25.296875 -23.28125 26.640625 -22.3125 L 24.71875 -19.4375 C 23.40625 -20.269531 21.914062 -21 20.25 -21.625 C 18.59375 -22.25 16.5625 -22.5625 14.15625 -22.5625 C 12.457031 -22.5625 11.191406 -22.285156 10.359375 -21.734375 C 9.535156 -21.191406 9.125 -20.507812 9.125 -19.6875 Z M 9.125 -19.6875 "/></g></g></g><g fill="#ffffff" fill-opacity="0.4"><g transform="translate(164.656567, 204.996315)"><g><path d="M 22.5625 -2.640625 C 24.738281 -2.640625 26.828125 -3.015625 28.828125 -3.765625 C 30.828125 -4.515625 32.738281 -5.738281 34.5625 -7.4375 L 36.953125 -4.5625 C 35.128906 -2.863281 32.921875 -1.519531 30.328125 -0.53125 C 27.742188 0.457031 24.992188 0.953125 22.078125 0.953125 C 18.078125 0.953125 14.601562 0.273438 11.65625 -1.078125 C 8.71875 -2.441406 6.441406 -4.441406 4.828125 -7.078125 C 3.210938 -9.722656 2.40625 -12.960938 2.40625 -16.796875 C 2.40625 -20.640625 3.203125 -23.878906 4.796875 -26.515625 C 6.398438 -29.160156 8.640625 -31.160156 11.515625 -32.515625 C 14.398438 -33.878906 17.757812 -34.5625 21.59375 -34.5625 C 24.507812 -34.5625 27.265625 -34.0625 29.859375 -33.0625 C 32.453125 -32.070312 34.660156 -30.734375 36.484375 -29.046875 L 34.078125 -26.15625 C 32.253906 -27.851562 30.34375 -29.078125 28.34375 -29.828125 C 26.34375 -30.578125 24.253906 -30.953125 22.078125 -30.953125 C 19.773438 -30.953125 17.695312 -30.457031 15.84375 -29.46875 C 13.988281 -28.476562 12.523438 -26.9375 11.453125 -24.84375 C 10.378906 -22.75 9.84375 -20.066406 9.84375 -16.796875 C 9.84375 -13.535156 10.382812 -10.863281 11.46875 -8.78125 C 12.5625 -6.695312 14.066406 -5.148438 15.984375 -4.140625 C 17.898438 -3.140625 20.09375 -2.640625 22.5625 -2.640625 Z M 22.5625 -2.640625 "/></g></g></g><g fill="#ffffff" fill-opacity="0.4"><g transform="translate(199.216486, 204.996315)"><g><path d="M 16.796875 -2.15625 C 18.140625 -2.15625 19.378906 -2.5 20.515625 -3.1875 C 21.648438 -3.875 22.550781 -4.976562 23.21875 -6.5 C 23.894531 -8.019531 24.234375 -10.015625 24.234375 -12.484375 C 24.234375 -14.972656 23.894531 -16.96875 23.21875 -18.46875 C 22.550781 -19.976562 21.648438 -21.078125 20.515625 -21.765625 C 19.378906 -22.453125 18.140625 -22.796875 16.796875 -22.796875 C 15.453125 -22.796875 14.210938 -22.453125 13.078125 -21.765625 C 11.941406 -21.078125 11.035156 -19.976562 10.359375 -18.46875 C 9.691406 -16.96875 9.359375 -14.972656 9.359375 -12.484375 C 9.359375 -10.015625 9.691406 -8.019531 10.359375 -6.5 C 11.035156 -4.976562 11.941406 -3.875 13.078125 -3.1875 C 14.210938 -2.5 15.453125 -2.15625 16.796875 -2.15625 Z M 16.796875 -25.921875 C 19.679688 -25.921875 22.226562 -25.398438 24.4375 -24.359375 C 26.644531 -23.316406 28.363281 -21.796875 29.59375 -19.796875 C 30.820312 -17.796875 31.4375 -15.359375 31.4375 -12.484375 C 31.4375 -9.597656 30.820312 -7.15625 29.59375 -5.15625 C 28.363281 -3.15625 26.644531 -1.632812 24.4375 -0.59375 C 22.226562 0.4375 19.679688 0.953125 16.796875 0.953125 C 13.921875 0.953125 11.382812 0.4375 9.1875 -0.59375 C 7 -1.632812 5.28125 -3.15625 4.03125 -5.15625 C 2.78125 -7.15625 2.15625 -9.597656 2.15625 -12.484375 C 2.15625 -15.359375 2.78125 -17.796875 4.03125 -19.796875 C 5.28125 -21.796875 7 -23.316406 9.1875 -24.359375 C 11.382812 -25.398438 13.921875 -25.921875 16.796875 -25.921875 Z M 16.796875 -25.921875 "/></g></g></g><g fill="#ffffff" fill-opacity="0.4"><g transform="translate(229.45641, 204.996315)"><g><path d="M 29.765625 -15.125 L 29.765625 0 L 23.046875 0 L 23.046875 -15.125 C 23.046875 -17.425781 22.46875 -19.078125 21.3125 -20.078125 C 20.15625 -21.085938 18.488281 -21.59375 16.3125 -21.59375 L 10.078125 -21.59375 L 10.078125 0 L 3.359375 0 L 3.359375 -24.953125 L 16.3125 -24.953125 C 20.894531 -24.953125 24.28125 -24.128906 26.46875 -22.484375 C 28.664062 -20.835938 29.765625 -18.382812 29.765625 -15.125 Z M 29.765625 -15.125 "/></g></g></g><g fill="#ffffff" fill-opacity="0.4"><g transform="translate(258.976328, 204.996315)"><g><path d="M 29.765625 -15.125 L 29.765625 0 L 23.046875 0 L 23.046875 -15.125 C 23.046875 -17.425781 22.46875 -19.078125 21.3125 -20.078125 C 20.15625 -21.085938 18.488281 -21.59375 16.3125 -21.59375 L 10.078125 -21.59375 L 10.078125 0 L 3.359375 0 L 3.359375 -24.953125 L 16.3125 -24.953125 C 20.894531 -24.953125 24.28125 -24.128906 26.46875 -22.484375 C 28.664062 -20.835938 29.765625 -18.382812 29.765625 -15.125 Z M 29.765625 -15.125 "/></g></g></g><g fill="#ffffff" fill-opacity="0.4"><g transform="translate(288.496247, 204.996315)"><g><path d="M 17.765625 -2.40625 C 19.328125 -2.40625 20.785156 -2.675781 22.140625 -3.21875 C 23.503906 -3.757812 24.84375 -4.523438 26.15625 -5.515625 L 28.078125 -2.640625 C 26.859375 -1.554688 25.265625 -0.6875 23.296875 -0.03125 C 21.335938 0.625 19.332031 0.953125 17.28125 0.953125 C 14.238281 0.953125 11.582031 0.4375 9.3125 -0.59375 C 7.039062 -1.632812 5.28125 -3.15625 4.03125 -5.15625 C 2.78125 -7.15625 2.15625 -9.597656 2.15625 -12.484375 C 2.15625 -15.359375 2.75 -17.796875 3.9375 -19.796875 C 5.125 -21.796875 6.765625 -23.316406 8.859375 -24.359375 C 10.953125 -25.398438 13.359375 -25.921875 16.078125 -25.921875 C 18.640625 -25.921875 20.972656 -25.40625 23.078125 -24.375 C 25.191406 -23.351562 26.875 -21.898438 28.125 -20.015625 C 29.375 -18.128906 30 -15.859375 30 -13.203125 L 30 -9.84375 L 9.5 -9.84375 C 9.882812 -7.1875 10.804688 -5.28125 12.265625 -4.125 C 13.722656 -2.976562 15.554688 -2.40625 17.765625 -2.40625 Z M 16.078125 -22.796875 C 14.253906 -22.796875 12.691406 -22.0625 11.390625 -20.59375 C 10.097656 -19.125 9.421875 -16.660156 9.359375 -13.203125 L 22.796875 -13.203125 C 22.796875 -15.441406 22.46875 -17.265625 21.8125 -18.671875 C 21.15625 -20.078125 20.316406 -21.113281 19.296875 -21.78125 C 18.273438 -22.457031 17.203125 -22.796875 16.078125 -22.796875 Z M 16.078125 -22.796875 "/></g></g></g><g fill="#ffffff" fill-opacity="0.4"><g transform="translate(317.296171, 204.996315)"><g><path d="M 16.796875 -25.921875 C 18.847656 -25.921875 20.859375 -25.59375 22.828125 -24.9375 C 24.796875 -24.28125 26.382812 -23.40625 27.59375 -22.3125 L 25.6875 -19.4375 C 24.375 -20.425781 23.035156 -21.191406 21.671875 -21.734375 C 20.304688 -22.285156 18.84375 -22.5625 17.28125 -22.5625 C 15.78125 -22.5625 14.425781 -22.21875 13.21875 -21.53125 C 12.019531 -20.84375 11.078125 -19.757812 10.390625 -18.28125 C 9.703125 -16.8125 9.359375 -14.878906 9.359375 -12.484375 C 9.359375 -8.898438 10.125 -6.320312 11.65625 -4.75 C 13.195312 -3.1875 15.234375 -2.40625 17.765625 -2.40625 C 19.328125 -2.40625 20.785156 -2.675781 22.140625 -3.21875 C 23.503906 -3.757812 24.84375 -4.523438 26.15625 -5.515625 L 28.078125 -2.640625 C 26.859375 -1.554688 25.265625 -0.6875 23.296875 -0.03125 C 21.335938 0.625 19.332031 0.953125 17.28125 0.953125 C 14.238281 0.953125 11.582031 0.4375 9.3125 -0.59375 C 7.039062 -1.632812 5.28125 -3.15625 4.03125 -5.15625 C 2.78125 -7.15625 2.15625 -9.597656 2.15625 -12.484375 C 2.15625 -15.359375 2.78125 -17.796875 4.03125 -19.796875 C 5.28125 -21.796875 7 -23.316406 9.1875 -24.359375 C 11.382812 -25.398438 13.921875 -25.921875 16.796875 -25.921875 Z M 16.796875 -25.921875 "/></g></g></g><g fill="#ffffff" fill-opacity="0.4"><g transform="translate(343.456104, 204.996315)"><g><path d="M 5.515625 -9.125 L 5.515625 -21.59375 L 0.953125 -21.59375 L 0.953125 -24.953125 L 5.515625 -24.953125 L 5.515625 -32.640625 L 12.234375 -32.640625 L 12.234375 -24.953125 L 19.6875 -24.953125 L 19.6875 -21.59375 L 12.234375 -21.59375 L 12.234375 -9.125 C 12.234375 -6.71875 12.738281 -4.992188 13.75 -3.953125 C 14.757812 -2.921875 15.9375 -2.40625 17.28125 -2.40625 C 18.238281 -2.40625 19.164062 -2.554688 20.0625 -2.859375 C 20.957031 -3.160156 21.707031 -3.488281 22.3125 -3.84375 L 23.765625 -0.71875 C 22.796875 -0.238281 21.695312 0.15625 20.46875 0.46875 C 19.238281 0.789062 18.015625 0.953125 16.796875 0.953125 C 13.179688 0.953125 10.394531 0.0546875 8.4375 -1.734375 C 6.488281 -3.523438 5.515625 -5.988281 5.515625 -9.125 Z M 5.515625 -9.125 "/></g></g></g><g fill="#ffffff" fill-opacity="1"><g transform="translate(9.415622, 202.874987)"><g><path d="M 30 -33.59375 L 36.953125 -33.59375 L 36.953125 0 L 30 0 L 30 -14.640625 L 10.3125 -14.640625 L 10.3125 0 L 3.359375 0 L 3.359375 -33.59375 L 10.3125 -33.59375 L 10.3125 -18.234375 L 30 -18.234375 Z M 30 -33.59375 "/></g></g></g><g fill="#ffffff" fill-opacity="1"><g transform="translate(46.37553, 202.874987)"><g><path d="M 16.796875 -2.15625 C 18.140625 -2.15625 19.378906 -2.5 20.515625 -3.1875 C 21.648438 -3.875 22.550781 -4.976562 23.21875 -6.5 C 23.894531 -8.019531 24.234375 -10.015625 24.234375 -12.484375 C 24.234375 -14.972656 23.894531 -16.96875 23.21875 -18.46875 C 22.550781 -19.976562 21.648438 -21.078125 20.515625 -21.765625 C 19.378906 -22.453125 18.140625 -22.796875 16.796875 -22.796875 C 15.453125 -22.796875 14.210938 -22.453125 13.078125 -21.765625 C 11.941406 -21.078125 11.035156 -19.976562 10.359375 -18.46875 C 9.691406 -16.96875 9.359375 -14.972656 9.359375 -12.484375 C 9.359375 -10.015625 9.691406 -8.019531 10.359375 -6.5 C 11.035156 -4.976562 11.941406 -3.875 13.078125 -3.1875 C 14.210938 -2.5 15.453125 -2.15625 16.796875 -2.15625 Z M 16.796875 -25.921875 C 19.679688 -25.921875 22.226562 -25.398438 24.4375 -24.359375 C 26.644531 -23.316406 28.363281 -21.796875 29.59375 -19.796875 C 30.820312 -17.796875 31.4375 -15.359375 31.4375 -12.484375 C 31.4375 -9.597656 30.820312 -7.15625 29.59375 -5.15625 C 28.363281 -3.15625 26.644531 -1.632812 24.4375 -0.59375 C 22.226562 0.4375 19.679688 0.953125 16.796875 0.953125 C 13.921875 0.953125 11.382812 0.4375 9.1875 -0.59375 C 7 -1.632812 5.28125 -3.15625 4.03125 -5.15625 C 2.78125 -7.15625 2.15625 -9.597656 2.15625 -12.484375 C 2.15625 -15.359375 2.78125 -17.796875 4.03125 -19.796875 C 5.28125 -21.796875 7 -23.316406 9.1875 -24.359375 C 11.382812 -25.398438 13.921875 -25.921875 16.796875 -25.921875 Z M 16.796875 -25.921875 "/></g></g></g><g fill="#ffffff" fill-opacity="1"><g transform="translate(76.615456, 202.874987)"><g><path d="M 16.796875 -2.15625 C 18.140625 -2.15625 19.378906 -2.5 20.515625 -3.1875 C 21.648438 -3.875 22.550781 -4.976562 23.21875 -6.5 C 23.894531 -8.019531 24.234375 -10.015625 24.234375 -12.484375 C 24.234375 -14.972656 23.894531 -16.96875 23.21875 -18.46875 C 22.550781 -19.976562 21.648438 -21.078125 20.515625 -21.765625 C 19.378906 -22.453125 18.140625 -22.796875 16.796875 -22.796875 C 15.453125 -22.796875 14.210938 -22.453125 13.078125 -21.765625 C 11.941406 -21.078125 11.035156 -19.976562 10.359375 -18.46875 C 9.691406 -16.96875 9.359375 -14.972656 9.359375 -12.484375 C 9.359375 -10.015625 9.691406 -8.019531 10.359375 -6.5 C 11.035156 -4.976562 11.941406 -3.875 13.078125 -3.1875 C 14.210938 -2.5 15.453125 -2.15625 16.796875 -2.15625 Z M 16.796875 -25.921875 C 19.679688 -25.921875 22.226562 -25.398438 24.4375 -24.359375 C 26.644531 -23.316406 28.363281 -21.796875 29.59375 -19.796875 C 30.820312 -17.796875 31.4375 -15.359375 31.4375 -12.484375 C 31.4375 -9.597656 30.820312 -7.15625 29.59375 -5.15625 C 28.363281 -3.15625 26.644531 -1.632812 24.4375 -0.59375 C 22.226562 0.4375 19.679688 0.953125 16.796875 0.953125 C 13.921875 0.953125 11.382812 0.4375 9.1875 -0.59375 C 7 -1.632812 5.28125 -3.15625 4.03125 -5.15625 C 2.78125 -7.15625 2.15625 -9.597656 2.15625 -12.484375 C 2.15625 -15.359375 2.78125 -17.796875 4.03125 -19.796875 C 5.28125 -21.796875 7 -23.316406 9.1875 -24.359375 C 11.382812 -25.398438 13.921875 -25.921875 16.796875 -25.921875 Z M 16.796875 -25.921875 "/></g></g></g><g fill="#ffffff" fill-opacity="1"><g transform="translate(106.855385, 202.874987)"><g><path d="M 16.078125 -21.59375 L 10.078125 -21.59375 L 10.078125 -3.359375 L 16.078125 -3.359375 C 18.253906 -3.359375 20.035156 -4.0625 21.421875 -5.46875 C 22.816406 -6.875 23.515625 -9.210938 23.515625 -12.484375 C 23.515625 -15.742188 22.816406 -18.078125 21.421875 -19.484375 C 20.035156 -20.890625 18.253906 -21.59375 16.078125 -21.59375 Z M 3.359375 -24.953125 L 16.078125 -24.953125 C 19.054688 -24.953125 21.640625 -24.445312 23.828125 -23.4375 C 26.023438 -22.4375 27.722656 -21 28.921875 -19.125 C 30.117188 -17.25 30.71875 -15.035156 30.71875 -12.484375 C 30.71875 -9.921875 30.117188 -7.703125 28.921875 -5.828125 C 27.722656 -3.960938 26.023438 -2.523438 23.828125 -1.515625 C 21.640625 -0.503906 19.054688 0 16.078125 0 L 10.078125 0 L 10.078125 8.640625 L 3.359375 8.640625 Z M 3.359375 -24.953125 "/></g></g></g><g fill="#ffffff" fill-opacity="1"><g transform="translate(136.375304, 202.874987)"><g><path d="M 9.125 -19.6875 C 9.125 -18.945312 9.453125 -18.269531 10.109375 -17.65625 C 10.765625 -17.050781 11.875 -16.523438 13.4375 -16.078125 L 20.875 -13.921875 C 23.1875 -13.242188 24.960938 -12.328125 26.203125 -11.171875 C 27.453125 -10.023438 28.078125 -8.539062 28.078125 -6.71875 C 28.078125 -5.1875 27.632812 -3.84375 26.75 -2.6875 C 25.875 -1.53125 24.4375 -0.632812 22.4375 0 C 20.4375 0.632812 17.757812 0.953125 14.40625 0.953125 C 12.644531 0.953125 10.9375 0.785156 9.28125 0.453125 C 7.632812 0.117188 6.140625 -0.316406 4.796875 -0.859375 C 3.453125 -1.410156 2.332031 -2.003906 1.4375 -2.640625 L 3.359375 -5.515625 C 4.703125 -4.679688 6.273438 -3.953125 8.078125 -3.328125 C 9.890625 -2.710938 12 -2.40625 14.40625 -2.40625 C 16.800781 -2.40625 18.476562 -2.722656 19.4375 -3.359375 C 20.394531 -3.992188 20.875 -4.796875 20.875 -5.765625 C 20.875 -6.492188 20.535156 -7.15625 19.859375 -7.75 C 19.191406 -8.34375 18.007812 -8.878906 16.3125 -9.359375 L 8.875 -11.515625 C 6.832031 -12.128906 5.160156 -13.003906 3.859375 -14.140625 C 2.566406 -15.273438 1.921875 -16.800781 1.921875 -18.71875 C 1.921875 -20.09375 2.34375 -21.316406 3.1875 -22.390625 C 4.039062 -23.460938 5.363281 -24.316406 7.15625 -24.953125 C 8.945312 -25.597656 11.28125 -25.921875 14.15625 -25.921875 C 16.8125 -25.921875 19.21875 -25.5625 21.375 -24.84375 C 23.539062 -24.125 25.296875 -23.28125 26.640625 -22.3125 L 24.71875 -19.4375 C 23.40625 -20.269531 21.914062 -21 20.25 -21.625 C 18.59375 -22.25 16.5625 -22.5625 14.15625 -22.5625 C 12.457031 -22.5625 11.191406 -22.285156 10.359375 -21.734375 C 9.535156 -21.191406 9.125 -20.507812 9.125 -19.6875 Z M 9.125 -19.6875 "/></g></g></g><g fill="#ffffff" fill-opacity="1"><g transform="translate(162.535237, 202.874987)"><g><path d="M 22.5625 -2.640625 C 24.738281 -2.640625 26.828125 -3.015625 28.828125 -3.765625 C 30.828125 -4.515625 32.738281 -5.738281 34.5625 -7.4375 L 36.953125 -4.5625 C 35.128906 -2.863281 32.921875 -1.519531 30.328125 -0.53125 C 27.742188 0.457031 24.992188 0.953125 22.078125 0.953125 C 18.078125 0.953125 14.601562 0.273438 11.65625 -1.078125 C 8.71875 -2.441406 6.441406 -4.441406 4.828125 -7.078125 C 3.210938 -9.722656 2.40625 -12.960938 2.40625 -16.796875 C 2.40625 -20.640625 3.203125 -23.878906 4.796875 -26.515625 C 6.398438 -29.160156 8.640625 -31.160156 11.515625 -32.515625 C 14.398438 -33.878906 17.757812 -34.5625 21.59375 -34.5625 C 24.507812 -34.5625 27.265625 -34.0625 29.859375 -33.0625 C 32.453125 -32.070312 34.660156 -30.734375 36.484375 -29.046875 L 34.078125 -26.15625 C 32.253906 -27.851562 30.34375 -29.078125 28.34375 -29.828125 C 26.34375 -30.578125 24.253906 -30.953125 22.078125 -30.953125 C 19.773438 -30.953125 17.695312 -30.457031 15.84375 -29.46875 C 13.988281 -28.476562 12.523438 -26.9375 11.453125 -24.84375 C 10.378906 -22.75 9.84375 -20.066406 9.84375 -16.796875 C 9.84375 -13.535156 10.382812 -10.863281 11.46875 -8.78125 C 12.5625 -6.695312 14.066406 -5.148438 15.984375 -4.140625 C 17.898438 -3.140625 20.09375 -2.640625 22.5625 -2.640625 Z M 22.5625 -2.640625 "/></g></g></g><g fill="#ffffff" fill-opacity="1"><g transform="translate(197.095156, 202.874987)"><g><path d="M 16.796875 -2.15625 C 18.140625 -2.15625 19.378906 -2.5 20.515625 -3.1875 C 21.648438 -3.875 22.550781 -4.976562 23.21875 -6.5 C 23.894531 -8.019531 24.234375 -10.015625 24.234375 -12.484375 C 24.234375 -14.972656 23.894531 -16.96875 23.21875 -18.46875 C 22.550781 -19.976562 21.648438 -21.078125 20.515625 -21.765625 C 19.378906 -22.453125 18.140625 -22.796875 16.796875 -22.796875 C 15.453125 -22.796875 14.210938 -22.453125 13.078125 -21.765625 C 11.941406 -21.078125 11.035156 -19.976562 10.359375 -18.46875 C 9.691406 -16.96875 9.359375 -14.972656 9.359375 -12.484375 C 9.359375 -10.015625 9.691406 -8.019531 10.359375 -6.5 C 11.035156 -4.976562 11.941406 -3.875 13.078125 -3.1875 C 14.210938 -2.5 15.453125 -2.15625 16.796875 -2.15625 Z M 16.796875 -25.921875 C 19.679688 -25.921875 22.226562 -25.398438 24.4375 -24.359375 C 26.644531 -23.316406 28.363281 -21.796875 29.59375 -19.796875 C 30.820312 -17.796875 31.4375 -15.359375 31.4375 -12.484375 C 31.4375 -9.597656 30.820312 -7.15625 29.59375 -5.15625 C 28.363281 -3.15625 26.644531 -1.632812 24.4375 -0.59375 C 22.226562 0.4375 19.679688 0.953125 16.796875 0.953125 C 13.921875 0.953125 11.382812 0.4375 9.1875 -0.59375 C 7 -1.632812 5.28125 -3.15625 4.03125 -5.15625 C 2.78125 -7.15625 2.15625 -9.597656 2.15625 -12.484375 C 2.15625 -15.359375 2.78125 -17.796875 4.03125 -19.796875 C 5.28125 -21.796875 7 -23.316406 9.1875 -24.359375 C 11.382812 -25.398438 13.921875 -25.921875 16.796875 -25.921875 Z M 16.796875 -25.921875 "/></g></g></g><g fill="#ffffff" fill-opacity="1"><g transform="translate(227.33508, 202.874987)"><g><path d="M 29.765625 -15.125 L 29.765625 0 L 23.046875 0 L 23.046875 -15.125 C 23.046875 -17.425781 22.46875 -19.078125 21.3125 -20.078125 C 20.15625 -21.085938 18.488281 -21.59375 16.3125 -21.59375 L 10.078125 -21.59375 L 10.078125 0 L 3.359375 0 L 3.359375 -24.953125 L 16.3125 -24.953125 C 20.894531 -24.953125 24.28125 -24.128906 26.46875 -22.484375 C 28.664062 -20.835938 29.765625 -18.382812 29.765625 -15.125 Z M 29.765625 -15.125 "/></g></g></g><g fill="#ffffff" fill-opacity="1"><g transform="translate(256.854998, 202.874987)"><g><path d="M 29.765625 -15.125 L 29.765625 0 L 23.046875 0 L 23.046875 -15.125 C 23.046875 -17.425781 22.46875 -19.078125 21.3125 -20.078125 C 20.15625 -21.085938 18.488281 -21.59375 16.3125 -21.59375 L 10.078125 -21.59375 L 10.078125 0 L 3.359375 0 L 3.359375 -24.953125 L 16.3125 -24.953125 C 20.894531 -24.953125 24.28125 -24.128906 26.46875 -22.484375 C 28.664062 -20.835938 29.765625 -18.382812 29.765625 -15.125 Z M 29.765625 -15.125 "/></g></g></g><g fill="#ffffff" fill-opacity="1"><g transform="translate(286.374917, 202.874987)"><g><path d="M 17.765625 -2.40625 C 19.328125 -2.40625 20.785156 -2.675781 22.140625 -3.21875 C 23.503906 -3.757812 24.84375 -4.523438 26.15625 -5.515625 L 28.078125 -2.640625 C 26.859375 -1.554688 25.265625 -0.6875 23.296875 -0.03125 C 21.335938 0.625 19.332031 0.953125 17.28125 0.953125 C 14.238281 0.953125 11.582031 0.4375 9.3125 -0.59375 C 7.039062 -1.632812 5.28125 -3.15625 4.03125 -5.15625 C 2.78125 -7.15625 2.15625 -9.597656 2.15625 -12.484375 C 2.15625 -15.359375 2.75 -17.796875 3.9375 -19.796875 C 5.125 -21.796875 6.765625 -23.316406 8.859375 -24.359375 C 10.953125 -25.398438 13.359375 -25.921875 16.078125 -25.921875 C 18.640625 -25.921875 20.972656 -25.40625 23.078125 -24.375 C 25.191406 -23.351562 26.875 -21.898438 28.125 -20.015625 C 29.375 -18.128906 30 -15.859375 30 -13.203125 L 30 -9.84375 L 9.5 -9.84375 C 9.882812 -7.1875 10.804688 -5.28125 12.265625 -4.125 C 13.722656 -2.976562 15.554688 -2.40625 17.765625 -2.40625 Z M 16.078125 -22.796875 C 14.253906 -22.796875 12.691406 -22.0625 11.390625 -20.59375 C 10.097656 -19.125 9.421875 -16.660156 9.359375 -13.203125 L 22.796875 -13.203125 C 22.796875 -15.441406 22.46875 -17.265625 21.8125 -18.671875 C 21.15625 -20.078125 20.316406 -21.113281 19.296875 -21.78125 C 18.273438 -22.457031 17.203125 -22.796875 16.078125 -22.796875 Z M 16.078125 -22.796875 "/></g></g></g><g fill="#ffffff" fill-opacity="1"><g transform="translate(315.174841, 202.874987)"><g><path d="M 16.796875 -25.921875 C 18.847656 -25.921875 20.859375 -25.59375 22.828125 -24.9375 C 24.796875 -24.28125 26.382812 -23.40625 27.59375 -22.3125 L 25.6875 -19.4375 C 24.375 -20.425781 23.035156 -21.191406 21.671875 -21.734375 C 20.304688 -22.285156 18.84375 -22.5625 17.28125 -22.5625 C 15.78125 -22.5625 14.425781 -22.21875 13.21875 -21.53125 C 12.019531 -20.84375 11.078125 -19.757812 10.390625 -18.28125 C 9.703125 -16.8125 9.359375 -14.878906 9.359375 -12.484375 C 9.359375 -8.898438 10.125 -6.320312 11.65625 -4.75 C 13.195312 -3.1875 15.234375 -2.40625 17.765625 -2.40625 C 19.328125 -2.40625 20.785156 -2.675781 22.140625 -3.21875 C 23.503906 -3.757812 24.84375 -4.523438 26.15625 -5.515625 L 28.078125 -2.640625 C 26.859375 -1.554688 25.265625 -0.6875 23.296875 -0.03125 C 21.335938 0.625 19.332031 0.953125 17.28125 0.953125 C 14.238281 0.953125 11.582031 0.4375 9.3125 -0.59375 C 7.039062 -1.632812 5.28125 -3.15625 4.03125 -5.15625 C 2.78125 -7.15625 2.15625 -9.597656 2.15625 -12.484375 C 2.15625 -15.359375 2.78125 -17.796875 4.03125 -19.796875 C 5.28125 -21.796875 7 -23.316406 9.1875 -24.359375 C 11.382812 -25.398438 13.921875 -25.921875 16.796875 -25.921875 Z M 16.796875 -25.921875 "/></g></g></g><g fill="#ffffff" fill-opacity="1"><g transform="translate(341.334774, 202.874987)"><g><path d="M 5.515625 -9.125 L 5.515625 -21.59375 L 0.953125 -21.59375 L 0.953125 -24.953125 L 5.515625 -24.953125 L 5.515625 -32.640625 L 12.234375 -32.640625 L 12.234375 -24.953125 L 19.6875 -24.953125 L 19.6875 -21.59375 L 12.234375 -21.59375 L 12.234375 -9.125 C 12.234375 -6.71875 12.738281 -4.992188 13.75 -3.953125 C 14.757812 -2.921875 15.9375 -2.40625 17.28125 -2.40625 C 18.238281 -2.40625 19.164062 -2.554688 20.0625 -2.859375 C 20.957031 -3.160156 21.707031 -3.488281 22.3125 -3.84375 L 23.765625 -0.71875 C 22.796875 -0.238281 21.695312 0.15625 20.46875 0.46875 C 19.238281 0.789062 18.015625 0.953125 16.796875 0.953125 C 13.179688 0.953125 10.394531 0.0546875 8.4375 -1.734375 C 6.488281 -3.523438 5.515625 -5.988281 5.515625 -9.125 Z M 5.515625 -9.125 "/></g></g></g></svg>